<svg width="896" height="256" viewBox="0 0 896 256" fill="none" xmlns="http://www.w3.org/2000/svg">
<mask id="mask0_241_193" style="mask-type:alpha" maskUnits="userSpaceOnUse" x="0" y="0" width="896" height="256">
<rect width="896" height="256" rx="32" fill="url(#paint0_linear_241_193)"/>
</mask>
<g mask="url(#mask0_241_193)">
<path d="M279 161V256" stroke="url(#paint1_linear_241_193)" stroke-width="2"/>
<path d="M201 196V291" stroke="url(#paint2_linear_241_193)" stroke-width="2"/>
<g filter="url(#filter0_f_241_193)">
<circle cx="798.5" cy="279.5" r="191.5" fill="url(#paint3_linear_241_193)" fill-opacity="0.3"/>
</g>
<g filter="url(#filter1_f_241_193)">
<circle cx="798.5" cy="279.5" r="191" stroke="url(#paint4_linear_241_193)"/>
</g>
<rect x="230.299" y="-171" width="35.9983" height="564" transform="rotate(40 230.299 -171)" fill="#A37BEB" fill-opacity="0.5"/>
<path fill-rule="evenodd" clip-rule="evenodd" d="M259.232 -98.2865L250.04 -106L112.483 57.9335L121.676 65.647L101.749 89.3943L92.5566 81.6809L-44.9999 245.614L-35.8074 253.328L78.6088 116.972L87.8013 124.685L153.366 46.5489L144.173 38.8354L259.232 -98.2865Z" fill="#633FAE"/>
<rect x="718.642" y="386.371" width="35.9983" height="564" transform="rotate(-155 718.642 386.371)" fill="#34B5EF" fill-opacity="0.4"/>
<path fill-rule="evenodd" clip-rule="evenodd" d="M671.876 323.624L682.751 328.695L773.192 134.745L762.316 129.674L775.417 101.578L786.293 106.65L876.733 -87.3002L865.858 -92.3716L790.631 68.9512L779.756 63.8798L736.649 156.323L747.524 161.395L671.876 323.624Z" fill="#34B5EF" fill-opacity="0.4"/>
</g>
<defs>
<filter id="filter0_f_241_193" x="573" y="54" width="451" height="451" filterUnits="userSpaceOnUse" color-interpolation-filters="sRGB">
<feFlood flood-opacity="0" result="BackgroundImageFix"/>
<feBlend mode="normal" in="SourceGraphic" in2="BackgroundImageFix" result="shape"/>
<feGaussianBlur stdDeviation="17" result="effect1_foregroundBlur_241_193"/>
</filter>
<filter id="filter1_f_241_193" x="573" y="54" width="451" height="451" filterUnits="userSpaceOnUse" color-interpolation-filters="sRGB">
<feFlood flood-opacity="0" result="BackgroundImageFix"/>
<feBlend mode="normal" in="SourceGraphic" in2="BackgroundImageFix" result="shape"/>
<feGaussianBlur stdDeviation="17" result="effect1_foregroundBlur_241_193"/>
</filter>
<linearGradient id="paint0_linear_241_193" x1="448" y1="-92.5" x2="448" y2="256" gradientUnits="userSpaceOnUse">
<stop stop-color="#5552FE"/>
<stop offset="0.58" stop-color="#5552FE"/>
<stop offset="1"/>
</linearGradient>
<linearGradient id="paint1_linear_241_193" x1="279" y1="208.5" x2="280" y2="208.5" gradientUnits="userSpaceOnUse">
<stop stop-color="#FAFB93"/>
<stop offset="1" stop-color="#E6FE60"/>
</linearGradient>
<linearGradient id="paint2_linear_241_193" x1="201" y1="243.5" x2="202" y2="243.5" gradientUnits="userSpaceOnUse">
<stop stop-color="#FAFB93"/>
<stop offset="1" stop-color="#E6FE60"/>
</linearGradient>
<linearGradient id="paint3_linear_241_193" x1="798.5" y1="88" x2="798.5" y2="471" gradientUnits="userSpaceOnUse">
<stop stop-color="#470D8C"/>
<stop offset="1" stop-color="#A705DF"/>
</linearGradient>
<linearGradient id="paint4_linear_241_193" x1="607" y1="276.254" x2="990" y2="276.254" gradientUnits="userSpaceOnUse">
<stop stop-color="#877CF6"/>
<stop offset="1" stop-color="#29BCED"/>
</linearGradient>
</defs>
</svg>
